<svg width="130" height="54" viewBox="0 0 130 54" version="1.1" xmlns="http://www.w3.org/2000/svg" xmlns:xlink="http://www.w3.org/1999/xlink">
<title>Skyjed_Logo</title>
<desc>Created using Figma</desc>
<g id="Canvas" transform="translate(2637 522)">
<g id="Skyjed_Logo">
<g id="Vector">
<use xlink:href="#path0_fill" transform="translate(-2565.87 -510.014)" fill="#6E267B"/>
</g>
<g id="Vector">
<use xlink:href="#path1_fill" transform="translate(-2564.76 -516.831)" fill="#E21E26"/>
</g>
<g id="Vector">
<use xlink:href="#path2_fill" transform="translate(-2563.58 -521.7)" fill="#E05206"/>
</g>
<g id="Vector">
<use xlink:href="#path3_fill" transform="translate(-2530.68 -508.332)" fill="#616465"/>
</g>
<g id="Vector">
<use xlink:href="#path4_fill" transform="translate(-2636.89 -509.028)" fill="#616465"/>
</g>
<g id="Vector">
<use xlink:href="#path5_fill" transform="translate(-2555.78 -500.322)" fill="#616465"/>
</g>
<g id="Vector">
<use xlink:href="#path6_fill" transform="translate(-2610.55 -508.354)" fill="#616465"/>
</g>
<g id="Vector">
<use xlink:href="#path7_fill" transform="translate(-2590.59 -499.679)" fill="#616465"/>
</g>
<g id="Vector">
<use xlink:href="#path8_fill" transform="translate(-2569 -499.612)" fill="#616465"/>
</g>
</g>
</g>
<defs>
<path id="path0_fill" d="M 3.48458 6.61733C 1.53144 6.61733 0 5.17878 0 3.2976C 0 1.46068 1.55363 -1.6885e-07 3.46238 -1.6885e-07C 5.37113 -1.6885e-07 6.92476 1.52708 6.90256 3.31973C 6.90256 5.15665 5.37113 6.61733 3.48458 6.61733Z"/>
<path id="path1_fill" d="M 2.37485 4.49271C 1.04316 4.49271 0.0221948 3.51892 0 2.23529C 0 0.99592 1.06535 1.57254e-15 2.35265 1.57254e-15C 3.63995 1.57254e-15 4.7053 1.04018 4.6831 2.25742C 4.6831 3.49679 3.63995 4.49271 2.37485 4.49271Z"/>
<path id="path2_fill" d="M 1.17633 2.25742C 0.510482 2.25742 -2.70933e-06 1.77052 -2.70933e-06 1.12871C -2.70933e-06 0.509026 0.532677 0 1.17633 0C 1.81998 0 2.35265 0.509026 2.35265 1.12871C 2.35265 1.74839 1.81998 2.25742 1.17633 2.25742Z"/>
<path id="path3_fill" d="M 17.7211 19.5643C 17.7211 15.979 15.2353 13.4117 11.7729 13.3896C 8.19959 13.3675 5.6694 15.8905 5.6472 19.4979C 5.62501 23.1717 8.13302 25.739 11.7286 25.7169C 15.2131 25.6947 17.7211 23.1275 17.7211 19.5643ZM 17.6989 11.1543L 17.6989 3.37701e-07L 23.3142 3.37701e-07L 23.3142 30.4088L 17.7655 30.4088L 17.7655 27.8858C 17.7655 27.8858 17.5436 28.1956 17.5214 28.2177C 13.5485 32.8654 4.16016 32.0908 0.941922 24.3005C -1.45511 18.502 0.87534 11.774 6.20207 9.09607C 9.53128 7.4362 14.7026 7.65752 17.4326 10.8223C 17.4548 10.8666 17.6989 11.1543 17.6989 11.1543Z"/>
<path id="path4_fill" d="M 0 24.2434C 1.75338 23.2253 3.39579 22.2515 5.12698 21.2556C 5.26015 21.4769 5.39332 21.6318 5.4599 21.8089C 6.92475 25.1508 10.143 26.1909 13.45 25.7926C 14.1602 25.704 14.8927 25.527 15.5363 25.195C 17.5338 24.1991 17.778 21.5654 15.9136 20.3703C 14.6929 19.5957 13.2502 19.1088 11.8742 18.5998C 10.1208 17.9359 8.27863 17.4932 6.56964 16.7408C 3.19604 15.2579 1.2651 12.7571 1.30949 8.92832C 1.35388 5.27662 3.55115 2.15607 7.08011 0.806042C 13.0283 -1.47351 19.8865 1.24867 22.2391 6.87009C 20.5967 7.82175 18.9543 8.75127 17.3119 9.72506C 16.8236 9.03898 16.4019 8.3529 15.8692 7.73322C 14.2934 5.94056 11.2749 5.29875 9.12203 6.27254C 6.96914 7.22419 6.61403 10.0349 8.63375 11.23C 10.1874 12.1595 11.9851 12.7128 13.7163 13.3325C 15.9358 14.1292 18.2219 14.7489 20.1306 16.2096C 24.7027 19.7285 24.1035 27.0098 18.9543 30.0197C 15.6695 31.9451 12.1183 32.0779 8.47838 31.3476C 5.23795 30.6836 2.68556 29.0016 0.954373 26.1467C 0.621452 25.5713 0.355115 24.9516 0 24.2434Z"/>
<path id="path5_fill" d="M 5.86721 9.45169L 16.8758 9.45169C 16.2099 6.66311 14.1902 5.04751 11.4825 5.09177C 8.46399 5.13603 6.48866 6.66311 5.86721 9.45169ZM 6.02257 13.8559C 6.28891 15.6707 7.90912 17.2863 9.88445 17.6846C 12.3703 18.1715 14.7229 18.0387 16.6538 16.1133C 16.787 15.9805 16.9868 15.8256 16.9868 15.8256C 16.9868 15.8256 20.0496 17.5518 21.4701 18.3707C 19.8721 20.606 17.8302 22.0667 15.2112 22.62C 11.2827 23.461 7.53181 23.0847 4.26919 20.5617C 0.962176 18.0387 -0.280728 14.4977 0.0521924 10.4919C 0.451697 5.79998 2.80434 2.30319 7.37645 0.731853C 14.9227 -1.85754 21.5811 2.72369 22.4467 9.76153C 22.5354 10.4255 22.602 11.0894 22.5798 11.7534C 22.5798 12.4173 22.4689 13.0813 22.4023 13.8337L 6.02257 13.8337L 6.02257 13.8559Z"/>
<path id="path6_fill" d="M 5.54868 20.6266L 5.54868 30.4088L -6.77329e-07 30.4088L -6.77329e-07 -1.6885e-07L 5.54868 -1.6885e-07L 5.54868 17.9708C 5.61526 17.993 5.68185 18.0151 5.74843 18.0372C 6.76939 16.7536 7.79035 15.4478 8.8113 14.1642C 10.143 12.4822 11.4525 10.7781 12.8064 9.09607C 12.9839 8.87475 13.1393 8.6977 13.1393 8.6977C 13.1393 8.6977 17.6226 8.67557 19.8421 8.67557C 16.868 12.3494 13.9605 15.8905 11.0752 19.4536C 14.0493 23.0832 20.1084 30.4973 20.1084 30.4973L 13.5166 30.4973C 13.5166 30.4973 8.23424 23.8578 5.97038 21.025C 5.9038 20.9365 5.79282 20.8479 5.54868 20.6266Z"/>
<path id="path7_fill" d="M 1.35466e-06 0L 6.12574 0C 7.9901 4.78042 11.8076 14.6068 11.8076 14.6068L 16.6682 0.0221312L 22.6608 0.0221312C 22.6608 0.0221312 16.6682 16.5101 14.3822 22.6185C 13.4278 25.1857 12.0073 27.4431 9.63251 28.9702C 7.70157 30.2096 5.57087 30.6301 3.26262 30.453L 3.26262 25.2742C 3.68432 25.23 4.17261 25.23 4.6387 25.1415C 6.81378 24.7873 8.07888 23.3709 8.76691 21.3791C 8.85569 21.1135 8.78911 20.7373 8.67813 20.4717C 5.8816 13.8544 3.08506 7.25915 0.28853 0.663947C 0.199751 0.509026 0.110975 0.309842 1.35466e-06 0Z"/>
<path id="path8_fill" d="M -1.35466e-06 31.0063L -1.35466e-06 30.1432L -1.35466e-06 25.7611C 0.443893 25.6947 0.821201 25.6726 1.19851 25.6062C 2.99628 25.3406 3.81749 24.4554 3.81749 22.6406C 3.83968 17.2184 3.83969 6.75402e-07 3.83969 6.75402e-07L 9.47714 6.75402e-07C 9.47714 6.75402e-07 9.52152 15.7134 9.43274 23.2824C 9.41055 25.8939 8.63374 28.3284 6.25891 29.8555C 4.39455 31.0284 2.28605 31.1612 -1.35466e-06 31.0063Z"/>
</defs>
</svg>
